# xmcd
#
# Track frame offsets:
#	150
#	24263
#	56038
#	79300
#	94343
#	117925
#	133843
#	161750
#
# Disc length: 2476 seconds
#
# Revision: 0
# Processed by: cddbd v1.5.1PL0 Copyright (c) Steve Scherf et al.
# Submitted via: EasyCDDAExtractor 7.1.2.1
#
DISCID=6909aa08
DTITLE=Randy Weston - Blues To Africa
DYEAR=1975
DGENRE=Blues
TTITLE0=African Village-Bedford Stuyvesant
TTITLE1=Tangier Bay
TTITLE2=Blues To Africa
TTITLE3=Kasbah Kids
TTITLE4=Uhuru Kwanza
TTITLE5=The Call
TTITLE6=Kucheza Blues
TTITLE7=Sahel
EXTD=
EXTT0=
EXTT1=
EXTT2=
EXTT3=
EXTT4=
EXTT5=
EXTT6=
EXTT7=
PLAYORDER=
